<svg id="visual" viewBox="0 0 900 600" width="900" height="600" xmlns="http://www.w3.org/2000/svg" xmlns:xlink="http://www.w3.org/1999/xlink" version="1.1"><rect x="0" y="0" width="900" height="600" fill="#272727"></rect><path d="M0 190L45 90L90 247L135 77L180 162L225 45L270 153L315 150L360 221L405 222L450 76L495 114L540 175L585 142L630 116L675 178L720 59L765 72L810 227L855 136L900 252L900 0L855 0L810 0L765 0L720 0L675 0L630 0L585 0L540 0L495 0L450 0L405 0L360 0L315 0L270 0L225 0L180 0L135 0L90 0L45 0L0 0Z" fill="#0066FF" stroke-linecap="square" stroke-linejoin="bevel"></path></svg>