<?xml version="1.0" encoding="UTF-8" standalone="no"?><svg xmlns:dc="http://purl.org/dc/elements/1.1/" xmlns:cc="http://creativecommons.org/ns#" xmlns:rdf="http://www.w3.org/1999/02/22-rdf-syntax-ns#" xmlns:svg="http://www.w3.org/2000/svg" xmlns="http://www.w3.org/2000/svg" xmlns:sodipodi="http://sodipodi.sourceforge.net/DTD/sodipodi-0.dtd" xmlns:inkscape="http://www.inkscape.org/namespaces/inkscape" id="svg3428" sodipodi:docname="radijacijos.svg" viewBox="0 0 100.4976 100.4976" inkscape:version="0.91 r13725" width="100.4976" height="100.4976"><defs id="defs3430"></defs><g id="layer1" inkscape:label="Layer 1" inkscape:groupmode="layer" transform="translate(-144.03384,-113.53504)"><path id="path4176" style="fill:black;stroke:none" d="m 214.88086,199.461 c -12.74622,7.35904 -28.45022,7.35904 -41.19644,0 l 13.5469,-23.46392 c 4.36337,2.5192 9.73927,2.5192 14.10263,0 z m 0,-71.35432 c 12.74622,7.35903 20.59822,20.95909 20.59822,35.67716 l -27.0938,0 c 0,-5.03839 -2.68795,-9.69405 -7.05132,-12.21324 z m -11.25438,35.67716 c 0,5.16046 -4.18338,9.34384 -9.34384,9.34384 -5.16046,0 -9.34384,-4.18338 -9.34384,-9.34384 0,-5.16046 4.18338,-9.34384 9.34384,-9.34384 5.16046,0 9.34384,4.18338 9.34384,9.34384 z m -50.54028,0 c 0,-14.71807 7.852,-28.31813 20.59822,-35.67716 l 13.5469,23.46392 c -4.36337,2.51919 -7.05132,7.17485 -7.05132,12.21324 z m 41.19644,-50.2488 c -27.75165,0 -50.2488,22.49715 -50.2488,50.2488 0,27.75165 22.49715,50.2488 50.2488,50.2488 27.75165,0 50.2488,-22.49715 50.2488,-50.2488 0,-27.75165 -22.49715,-50.2488 -50.2488,-50.2488 z" inkscape:connector-curvature="0" sodipodi:nodetypes="ccccccccccssssscccccsssss"></path></g><metadata id="metadata16"></metadata></svg> 